<?xml version="1.0" encoding="UTF-8"?>
<!-- Generator: visioncortex VTracer 0.6.4 -->
<svg version="1.1" xmlns="http://www.w3.org/2000/svg" width="96" height="96">
<path d="M0 0 C31.68 0 63.36 0 96 0 C96 31.68 96 63.36 96 96 C64.32 96 32.64 96 0 96 C0 64.32 0 32.64 0 0 Z " fill="#BEA998" transform="translate(0,0)"/>
<path d="M0 0 C31.68 0 63.36 0 96 0 C96 7.26 96 14.52 96 22 C94.35 22 92.7 22 91 22 C91.33 20.02 91.66 18.04 92 16 C91.01 16 90.02 16 89 16 C89.33 17.216875 89.66 18.43375 90 19.6875 C91.37888565 25.7662494 91.17245366 31.80124915 91 38 C90.01 38.495 90.01 38.495 89 39 C88.67 38.34 88.34 37.68 88 37 C84.29070521 36.52260353 80.60718317 36.21013554 76.87695312 35.96484375 C71.47419671 35.49657541 68.13209347 34.60979685 64 31 C63.625 27.75 63.625 27.75 64 25 C61.69 25 59.38 25 57 25 C57 24.01 57 23.02 57 22 C54.03 22 51.06 22 48 22 C48 22.66 48 23.32 48 24 C47.01 24 46.02 24 45 24 C44.505 25.485 44.505 25.485 44 27 C42.1796875 28.05078125 42.1796875 28.05078125 40 29 C34.1554608 32.15889062 30.02490752 35.70968595 26 41 C25.34 40.67 24.68 40.34 24 40 C24 38.35 24 36.7 24 35 C23.43152344 35.08378906 22.86304687 35.16757812 22.27734375 35.25390625 C18.33443897 35.77392207 15.2663936 36.0496666 11.3125 35.3125 C6.95126475 34.90106271 5.36046633 36.34288709 2 39 C1.01 39.495 1.01 39.495 0 40 C0 26.8 0 13.6 0 0 Z M22 41 C24 42 24 42 24 42 Z " fill="#BA9F8B" transform="translate(0,0)"/>
<path d="M0 0 C0.99 0 1.98 0 3 0 C2.67 1.98 2.34 3.96 2 6 C3.65 6 5.3 6 7 6 C7 30.42 7 54.84 7 80 C-4.55 80 -16.1 80 -28 80 C-27.67 76.7 -27.34 73.4 -27 70 C-29.475 70.495 -29.475 70.495 -32 71 C-32 70.01 -32 69.02 -32 68 C-28.81237635 65.87491756 -26.73487777 65.4979837 -23 65 C-23.27489191 60.96825194 -23.53491576 59.43105369 -26.5625 56.625 C-27.366875 56.08875 -28.17125 55.5525 -29 55 C-28.236875 54.29875 -27.47375 53.5975 -26.6875 52.875 C-21.96984637 47.82820775 -20.67143026 43.79302034 -20.6015625 37.05078125 C-21.1056031 34.45645463 -21.99720531 33.67915807 -24 32 C-24.48597656 31.54238281 -24.97195312 31.08476563 -25.47265625 30.61328125 C-29.90817566 26.98421991 -33.28866989 26.50378462 -38.9609375 26.7265625 C-40.99115427 26.7888703 -40.99115427 26.7888703 -42 28 C-43.99958364 28.04080783 -46.00045254 28.04254356 -48 28 C-47.84692284 25.32114968 -47.58010118 23.55424709 -45.59765625 21.66015625 C-45.04980469 21.23605469 -44.50195312 20.81195313 -43.9375 20.375 C-42.968125 19.59125 -41.99875 18.8075 -41 18 C-41 17.01 -41 16.02 -41 15 C-41.598125 15.33 -42.19625 15.66 -42.8125 16 C-45 17 -45 17 -48 17 C-44.54960064 13.1436713 -42.10359007 11.0396202 -37 10 C-33.32630412 9.8528492 -29.67411531 9.88232371 -26 10 C-26 11.65 -26 13.3 -26 15 C-25.21625 15.309375 -24.4325 15.61875 -23.625 15.9375 C-21 17 -21 17 -19 18 C-17.65084279 18.1937809 -16.29500885 18.34259014 -14.9375 18.46484375 C-14.14085937 18.54283203 -13.34421875 18.62082031 -12.5234375 18.70117188 C-10.84150403 18.85869041 -9.15920359 19.01233869 -7.4765625 19.16210938 C-6.28160156 19.28102539 -6.28160156 19.28102539 -5.0625 19.40234375 C-4.33160156 19.46929443 -3.60070312 19.53624512 -2.84765625 19.60522461 C-1 20 -1 20 1 22 C1.09377123 14.58165418 1.17402193 7.33763707 0 0 Z " fill="#CEB39D" transform="translate(89,16)"/>
<path d="M0 0 C0.99 0.66 1.98 1.32 3 2 C4.48683174 2.38786915 5.98950019 2.71804003 7.5 3 C10.75259668 3.60715138 12.14696759 4.0979784 15 6 C15.9781502 9.92890331 15.58200112 13.69157526 13.9453125 17.37109375 C12.72990661 19.38837985 11.57532443 21.24804828 10 23 C9.34 23 8.68 23 8 23 C8 24.32 8 25.64 8 27 C8.639375 27.45375 9.27875 27.9075 9.9375 28.375 C12 30 12 30 12.75 33.1875 C12.8325 34.115625 12.915 35.04375 13 36 C11.70990357 36.50403768 10.41786211 37.00309926 9.125 37.5 C8.40570313 37.7784375 7.68640625 38.056875 6.9453125 38.34375 C5 39 5 39 3 39 C3 39.99 3 40.98 3 42 C5.475 41.505 5.475 41.505 8 41 C7.505 45.95 7.505 45.95 7 51 C-13.13 51 -33.26 51 -54 51 C-54 44.07 -54 37.14 -54 30 C-53.01 30 -52.02 30 -51 30 C-50.773125 30.94875 -50.54625 31.8975 -50.3125 32.875 C-49.30916286 36.19323388 -49.30916286 36.19323388 -46.375 37.375 C-45.59125 37.58125 -44.8075 37.7875 -44 38 C-44 38.99 -44 39.98 -44 41 C-43.34 41 -42.68 41 -42 41 C-42 40.34 -42 39.68 -42 39 C-40.41753293 38.91846067 -38.83383727 38.86056443 -37.25 38.8125 C-35.92742188 38.76029297 -35.92742188 38.76029297 -34.578125 38.70703125 C-31.52389051 39.05410335 -30.19435701 39.88254802 -28 42 C-28 42.66 -28 43.32 -28 44 C-27.34 44 -26.68 44 -26 44 C-26 44.66 -26 45.32 -26 46 C-25.01 46 -24.02 46 -23 46 C-22.67 44.35 -22.34 42.7 -22 41 C-21.34 41 -20.68 41 -20 41 C-20 40.34 -20 39.68 -20 39 C-21.03125 39 -22.0625 39 -23.125 39 C-25.84438045 38.6476916 -26.79415668 38.22007212 -28.6953125 36.1875 C-29.71374521 34.75452935 -30.69747665 33.29610415 -31.640625 31.8125 C-32.958001 29.6977719 -32.958001 29.6977719 -36 29 C-37.640625 27.51171875 -37.640625 27.51171875 -39.25 25.6875 C-40.06210937 24.79611328 -40.06210937 24.79611328 -40.890625 23.88671875 C-42 22 -42 22 -41.671875 19.76953125 C-41.45015625 19.18558594 -41.2284375 18.60164063 -41 18 C-37.8125 18.0625 -37.8125 18.0625 -34 19 C-32.58204008 20.66140484 -31.53743599 22.41596032 -30.3984375 24.27734375 C-27.91060693 27.34196186 -24.70865614 27.93140416 -21 29 C-21 29.66 -21 30.32 -21 31 C-14.29225357 29.82144268 -7.63818061 28.52351686 -1 27 C-0.67 25.68 -0.34 24.36 0 23 C-0.86625 22.814375 -1.7325 22.62875 -2.625 22.4375 C-6.99079289 20.57799562 -9.34777648 17.87898489 -12 14 C-13.19754817 10.40735548 -13.33094958 7.77282526 -13 4 C-10.04391447 -1.01249286 -5.28561408 -0.83713225 0 0 Z " fill="#8A6E65" transform="translate(54,45)"/>
<path d="M0 0 C9.57 0 19.14 0 29 0 C29 7.26 29 14.52 29 22 C27.35 22 25.7 22 24 22 C24.33 20.02 24.66 18.04 25 16 C24.01 16 23.02 16 22 16 C22.33 17.216875 22.66 18.43375 23 19.6875 C24.37888565 25.7662494 24.17245366 31.80124915 24 38 C23.01 38.495 23.01 38.495 22 39 C22.04125 37.906875 22.0825 36.81375 22.125 35.6875 C22.32074666 31.91107771 22.32074666 31.91107771 20 29 C20 30.32 20 31.64 20 33 C17.60347472 33.08139142 15.20974564 33.14067009 12.8125 33.1875 C11.80219727 33.22520508 11.80219727 33.22520508 10.77148438 33.26367188 C6.3352884 33.32859182 3.43080146 32.89494295 0 30 C-0.79961609 25.04238024 -0.79078066 23.15022641 2.0625 19 C5.64657432 16.55977918 7.74981621 16.58331531 12 17 C12 16.34 12 15.68 12 15 C11.34 15 10.68 15 10 15 C10 14.01 10 13.02 10 12 C4.86243675 13.20883841 2.14199902 14.64162241 -2 18 C-3.32 18 -4.64 18 -6 18 C-7.45887389 15.08225221 -7.36823233 13.25271895 -7 10 C-5.61710425 7.42513068 -4.04499018 5.0945657 -2 3 C-1.34 3 -0.68 3 0 3 C0 2.01 0 1.02 0 0 Z " fill="#CCB097" transform="translate(67,0)"/>
<path d="M0 0 C0.66 0 1.32 0 2 0 C2 13.2 2 26.4 2 40 C-6.25 40 -14.5 40 -23 40 C-23.495 38.515 -23.495 38.515 -24 37 C-24.66 36.67 -25.32 36.34 -26 36 C-24.68574438 27.90695225 -24.68574438 27.90695225 -22.0625 24.4375 C-20 23 -20 23 -17 23 C-16.896875 22.4225 -16.79375 21.845 -16.6875 21.25 C-15.89103535 18.64338842 -14.80934723 17.0264689 -13 15 C-12.34 15 -11.68 15 -11 15 C-11 13.35 -11 11.7 -11 10 C-11.66 10 -12.32 10 -13 10 C-13 9.34 -13 8.68 -13 8 C-11.96875 8.165 -10.9375 8.33 -9.875 8.5 C-6.04325305 8.41410097 -6.04325305 8.41410097 -4.26953125 6.21875 C-3.22709482 4.75676508 -2.22281835 3.26669416 -1.26171875 1.75 C-0.63716797 0.88375 -0.63716797 0.88375 0 0 Z " fill="#CFB69E" transform="translate(94,56)"/>
<path d="M0 0 C7.92 0 15.84 0 24 0 C24 0.99 24 1.98 24 3 C22.35 3.33 20.7 3.66 19 4 C18.67 4.99 18.34 5.98 18 7 C15.97635676 7.90278912 13.94247804 8.45383213 11.8125 9.05859375 C9.78511176 9.85060773 9.78511176 9.85060773 9.25 12.09765625 C9.1675 12.72542969 9.085 13.35320313 9 14 C10.41152344 13.87818359 10.41152344 13.87818359 11.8515625 13.75390625 C21.79691537 13.24943183 21.79691537 13.24943183 25.16015625 15.34765625 C26.71236739 17.15393775 27.87076121 18.90585195 29 21 C29.639375 22.051875 30.27875 23.10375 30.9375 24.1875 C32.08605006 27.22777957 31.92229998 28.02955799 31 31 C24.9098619 32.39773661 19.25858211 33.43919874 13 33 C12.01 32.34 11.02 31.68 10 31 C8.34450469 30.61500109 6.6777567 30.27206865 5 30 C4.67 28.68 4.34 27.36 4 26 C4.99 26 5.98 26 7 26 C7 22.37 7 18.74 7 15 C5.68 15 4.36 15 3 15 C3 16.98 3 18.96 3 21 C2.01 21.33 1.02 21.66 0 22 C0 14.74 0 7.48 0 0 Z " fill="#393227" transform="translate(0,0)"/>
<path d="M0 0 C9.92205323 -0.58365019 9.92205323 -0.58365019 14 3 C14.66666667 4.66666667 15.33333333 6.33333333 16 8 C19.53740619 12.63649584 23.43186331 16.39357629 28 20 C30.67242261 22.62825034 32.79458101 24.89587292 33.5 28.6875 C32.89654656 31.47847216 32.02881943 32.04632203 30 34 C28.98470459 36.32671865 27.98511802 38.6603447 27 41 C25.5 43.4375 25.5 43.4375 24 45 C23.01 45 22.02 45 21 45 C21 43.02 21 41.04 21 39 C20.34 39 19.68 39 19 39 C19.33 32.73 19.66 26.46 20 20 C18.35 19.34 16.7 18.68 15 18 C13.91091581 17.15831901 12.84621851 16.28382193 11.8125 15.375 C7.54415877 12.17138848 3.1501712 12.30936402 -2 13 C-2.33 13.33 -2.66 13.66 -3 14 C-4.99958364 14.04080783 -7.00045254 14.04254356 -9 14 C-8.875 11.8125 -8.875 11.8125 -8 9 C-6.03814584 7.28859531 -4.03697617 5.62126675 -2 4 C-0.81018608 1.92918481 -0.81018608 1.92918481 0 0 Z " fill="#FEFCF2" transform="translate(50,30)"/>
<path d="M0 0 C1.85431641 0.54333984 1.85431641 0.54333984 3.74609375 1.09765625 C4.67550781 1.37480469 5.60492188 1.65195312 6.5625 1.9375 C6.60491723 4.27044775 6.60342937 6.60452567 6.5625 8.9375 C5.5625 9.9375 5.5625 9.9375 2.5 10 C1.530625 9.979375 0.56125 9.95875 -0.4375 9.9375 C0.2225 11.9175 0.8825 13.8975 1.5625 15.9375 C-3.33064323 17.56854774 -8.40349091 17.72336715 -13.1875 15.875 C-17.44440074 12.20933547 -19.1868557 8.60846202 -20 3.1875 C-19.4375 -0.0625 -19.4375 -0.0625 -17.375 -2.0625 C-11.59976321 -4.02853806 -5.6707 -1.67420667 0 0 Z " fill="#1D1315" transform="translate(60.4375,49.0625)"/>
<path d="M0 0 C3.37771844 2.07859596 4.2390537 4.31382847 5.25 8 C5.89379161 10.84156298 6 13.00669915 6 16 C3.60347472 16.08139142 1.20974564 16.14067009 -1.1875 16.1875 C-1.86103516 16.21263672 -2.53457031 16.23777344 -3.22851562 16.26367188 C-7.6647116 16.32859182 -10.56919854 15.89494295 -14 13 C-14.78831202 8.11246547 -14.75038512 6.16188664 -12.0625 2 C-7.96046421 -0.67888052 -4.77233246 -0.93837998 0 0 Z " fill="#564E41" transform="translate(81,17)"/>
<path d="M0 0 C2.25 0.4375 2.25 0.4375 5 2 C6.21439307 4.28441773 7.12837754 6.57184053 8.0078125 9.00390625 C8.33523437 9.66261719 8.66265625 10.32132813 9 11 C9.99 11.33 10.98 11.66 12 12 C11.42473475 15.85870232 9.64227602 17.89498568 7.0625 20.75 C6.35222656 21.54921875 5.64195313 22.3484375 4.91015625 23.171875 C3 25 3 25 1 25 C1 23.68 1 22.36 1 21 C0.14728516 21.12568359 0.14728516 21.12568359 -0.72265625 21.25390625 C-4.66556103 21.77392207 -7.7336064 22.0496666 -11.6875 21.3125 C-16.04873525 20.90106271 -17.63953367 22.34288709 -21 25 C-21.66 25.33 -22.32 25.66 -23 26 C-23 20.06 -23 14.12 -23 8 C-22.01 7.67 -21.02 7.34 -20 7 C-20 5.02 -20 3.04 -20 1 C-18.68 1 -17.36 1 -16 1 C-16 4.63 -16 8.26 -16 12 C-16.99 12 -17.98 12 -19 12 C-18.67 13.32 -18.34 14.64 -18 16 C-16.865625 16.144375 -15.73125 16.28875 -14.5625 16.4375 C-11 17 -11 17 -10 18 C-3.72974776 18.34201376 1.89758025 17.40055535 8 16 C6.71090078 10.10697497 3.85946649 4.63135979 0 0 Z " fill="#A58B7A" transform="translate(23,14)"/>
<path d="M0 0 C3.84800954 0.54971565 5.35309439 2.27037858 8 5 C10.13309192 6.23512079 10.13309192 6.23512079 12 7 C12 7.66 12 8.32 12 9 C12.92232422 9.20302734 12.92232422 9.20302734 13.86328125 9.41015625 C16.40947529 10.08832914 18.65289258 10.79495558 21 12 C22.75 15.5 22.75 15.5 24 19 C29.0143249 23.55847718 36.57393678 23 43 23 C43 25.31 43 27.62 43 30 C40.60225255 30.13572155 38.21224755 30.23436868 35.8125 30.3125 C34.80219727 30.3753418 34.80219727 30.3753418 33.77148438 30.43945312 C29.76190156 30.53724783 28.21816218 30.18366897 25.109375 27.56640625 C24.41328125 26.71949219 23.7171875 25.87257813 23 25 C22.484375 24.54625 21.96875 24.0925 21.4375 23.625 C20 22 20 22 18.25 18.5 C16.38643587 15.11042298 14.70641028 14.27551701 11.015625 13.0078125 C6.61055517 10.80527758 3.04645097 6.81324475 0 3 C0 2.01 0 1.02 0 0 Z " fill="#433335" transform="translate(17,66)"/>
<path d="M0 0 C0.99 0 1.98 0 3 0 C3.0990914 4.05664947 3.17157106 8.1128277 3.21972656 12.17041016 C3.23980642 13.5497668 3.26707666 14.92903869 3.30175781 16.30810547 C3.35042817 18.29356979 3.37086418 20.27966254 3.390625 22.265625 C3.41157227 23.45961914 3.43251953 24.65361328 3.45410156 25.88378906 C2.90736845 29.63567156 1.84607433 30.60897823 -1 33 C-1.598125 33.928125 -2.19625 34.85625 -2.8125 35.8125 C-3.534375 36.534375 -4.25625 37.25625 -5 38 C-8.75 37.8125 -8.75 37.8125 -12 37 C-12.103125 37.556875 -12.20625 38.11375 -12.3125 38.6875 C-13.14011401 41.47129258 -14.37737752 43.59851873 -16 46 C-16.99 46.495 -16.99 46.495 -18 47 C-17.731875 46.484375 -17.46375 45.96875 -17.1875 45.4375 C-16.21937112 43.45028809 -15.34518643 41.41753387 -14.5 39.375 C-13 36 -13 36 -11 34 C-10.59555754 31.00120709 -10.67506394 29.50759242 -12.3203125 26.9375 C-12.91585937 26.298125 -13.51140625 25.65875 -14.125 25 C-14.75792969 24.319375 -15.39085938 23.63875 -16.04296875 22.9375 C-18.57382404 20.43190275 -21.19297908 18.19084559 -24 16 C-23.67 15.34 -23.34 14.68 -23 14 C-21.56047403 15.10152406 -20.12345929 16.2063304 -18.6875 17.3125 C-17.88699219 17.92738281 -17.08648437 18.54226562 -16.26171875 19.17578125 C-12.62950405 22.10539138 -10.18560895 24.83693534 -8 29 C-8 29.99 -8 30.98 -8 32 C-7.34 32 -6.68 32 -6 32 C-5.9175 31.21625 -5.835 30.4325 -5.75 29.625 C-5.10081159 26.48725601 -4.25468941 24.10147068 -3 21.1875 C-1.25440357 17.03072001 -0.48536313 13.40134943 -0.2734375 8.91015625 C0 7 0 7 2 4 C1.34 4 0.68 4 0 4 C0 2.68 0 1.36 0 0 Z " fill="#E6CFB5" transform="translate(93,27)"/>
<path d="M0 0 C0.99 0 1.98 0 3 0 C3 6.93 3 13.86 3 21 C-4.92 21 -12.84 21 -21 21 C-21 19.68 -21 18.36 -21 17 C-19.02 17 -17.04 17 -15 17 C-15 16.34 -15 15.68 -15 15 C-14.030625 14.54625 -13.06125 14.0925 -12.0625 13.625 C-8.92920418 12.34213779 -8.92920418 12.34213779 -8 10 C-6.35 10 -4.7 10 -3 10 C-1.11608215 6.73454239 -0.50712033 3.71888239 0 0 Z " fill="#070503" transform="translate(93,75)"/>
<path d="M0 0 C7.92 0 15.84 0 24 0 C24 0.99 24 1.98 24 3 C22.35 3.33 20.7 3.66 19 4 C18.67 4.99 18.34 5.98 18 7 C15.48359313 7.91868822 12.95755563 8.46150886 10.34765625 9.05859375 C7.44365721 10.22309253 7.22765457 11.23089575 6 14 C5.01 14.33 4.02 14.66 3 15 C3 16.98 3 18.96 3 21 C2.01 21.33 1.02 21.66 0 22 C0 14.74 0 7.48 0 0 Z " fill="#0B0907" transform="translate(0,0)"/>
<path d="M0 0 C0.99 0 1.98 0 3 0 C4 3 5 6 6 9 C6.99 9 7.98 9 9 9 C9 9.99 9 10.98 9 12 C9.99 12.33 10.98 12.66 12 13 C12 13.66 12 14.32 12 15 C13.98 14.67 15.96 14.34 18 14 C18 14.99 18 15.98 18 17 C19.98 17 21.96 17 24 17 C24 18.32 24 19.64 24 21 C16.08 21 8.16 21 0 21 C0 14.07 0 7.14 0 0 Z " fill="#090605" transform="translate(0,75)"/>
<path d="M0 0 C7.92 0 15.84 0 24 0 C24 6.93 24 13.86 24 21 C23.01 21 22.02 21 21 21 C21 19.02 21 17.04 21 15 C20.38125 14.87625 19.7625 14.7525 19.125 14.625 C17 14 17 14 15 12 C15 11.01 15 10.02 15 9 C14.04287109 8.70996094 14.04287109 8.70996094 13.06640625 8.4140625 C12.24011719 8.15367188 11.41382812 7.89328125 10.5625 7.625 C9.73878906 7.36976563 8.91507813 7.11453125 8.06640625 6.8515625 C6 6 6 6 5 4 C3.35636866 3.27840576 1.68949614 2.60648579 0 2 C0 1.34 0 0.68 0 0 Z " fill="#0C0A08" transform="translate(72,0)"/>
<path d="M0 0 C0.66 0 1.32 0 2 0 C2 5.61 2 11.22 2 17 C1.01 17 0.02 17 -1 17 C-0.938125 17.9075 -0.87625 18.815 -0.8125 19.75 C-1.01896655 23.32875347 -1.34684029 24.62130509 -4 27 C-6.6875 27.25 -6.6875 27.25 -9 27 C-9 26.34 -9 25.68 -9 25 C-10.32 25 -11.64 25 -13 25 C-12.37487127 19.3738414 -12.37487127 19.3738414 -10.578125 17.58203125 C-8.69238198 15.69162055 -8.02509069 13.97877431 -7.0625 11.5 C-5.54277186 7.881878 -4.32054056 6.17552657 -1 4 C-0.20376178 1.90584196 -0.20376178 1.90584196 0 0 Z " fill="#7E5746" transform="translate(94,58)"/>
<path d="M0 0 C0.33 1.32 0.66 2.64 1 4 C1.94101563 3.91878906 2.88203125 3.83757813 3.8515625 3.75390625 C13.79691537 3.24943183 13.79691537 3.24943183 17.16015625 5.34765625 C18.71236739 7.15393775 19.87076121 8.90585195 21 11 C21.639375 12.051875 22.27875 13.10375 22.9375 14.1875 C24.08605006 17.22777957 23.92229998 18.02955799 23 21 C16.9098619 22.39773661 11.25858211 23.43919874 5 23 C4.01 22.34 3.02 21.68 2 21 C0.34450469 20.61500109 -1.3222433 20.27206865 -3 20 C-3.33 18.68 -3.66 17.36 -4 16 C-3.01 16 -2.02 16 -1 16 C-1 12.37 -1 8.74 -1 5 C-1.66 4.67 -2.32 4.34 -3 4 C-2.01 2.68 -1.02 1.36 0 0 Z M3 10 C2.01 10.33 1.02 10.66 0 11 C-0.36017076 15.16703944 -0.36017076 15.16703944 1.25 18.875 C3.21404988 20.36050506 3.21404988 20.36050506 7 20 C7 19.01 7 18.02 7 17 C9.31 17 11.62 17 14 17 C14 17.99 14 18.98 14 20 C15.66611905 20.042721 17.33382885 20.04063832 19 20 C20.2245768 19.00872297 20.2245768 19.00872297 20.01953125 17.07421875 C19.69398274 13.32119729 19.4177507 10.65876072 17.375 7.4375 C11.661202 3.97914858 7.56183919 5.81831408 3 10 Z " fill="#72594E" transform="translate(8,10)"/>
<path d="M0 0 C0.33 0.66 0.66 1.32 1 2 C-0.3125 4.625 -0.3125 4.625 -2 7 C-2.66 7 -3.32 7 -4 7 C-4 8.32 -4 9.64 -4 11 C-3.360625 11.45375 -2.72125 11.9075 -2.0625 12.375 C0 14 0 14 0.75 17.1875 C0.87375 18.5796875 0.87375 18.5796875 1 20 C-0.29009643 20.50403768 -1.58213789 21.00309926 -2.875 21.5 C-3.59429687 21.7784375 -4.31359375 22.056875 -5.0546875 22.34375 C-7 23 -7 23 -9 23 C-9 23.99 -9 24.98 -9 26 C-7.35 25.67 -5.7 25.34 -4 25 C-4.33 28.3 -4.66 31.6 -5 35 C-5.33 35 -5.66 35 -6 35 C-6 32.69 -6 30.38 -6 28 C-7.299375 28.226875 -8.59875 28.45375 -9.9375 28.6875 C-15.18820828 29.30424986 -19.18942482 28.01293571 -24 26 C-24.33 24.02 -24.66 22.04 -25 20 C-24.175 20.33 -23.35 20.66 -22.5 21 C-18.2723229 22.20790774 -15.3923927 22.34860259 -11 22 C-9.31970006 21.02308143 -7.65071396 20.02611949 -6 19 C-3.1875 19.3125 -3.1875 19.3125 -1 20 C-1.62810173 17.02982306 -1.62810173 17.02982306 -3 14 C-5.50995496 12.56076801 -5.50995496 12.56076801 -8 12 C-8 10.68 -8 9.36 -8 8 C-7.34 8 -6.68 8 -6 8 C-6 7.34 -6 6.68 -6 6 C-5.38125 5.7525 -4.7625 5.505 -4.125 5.25 C-1.64931313 3.79371361 -1.04874998 2.62187494 0 0 Z " fill="#955D67" transform="translate(66,61)"/>
<path d="M0 0 C0 0.33 0 0.66 0 1 C-0.75925781 1.06058594 -1.51851562 1.12117188 -2.30078125 1.18359375 C-3.29464844 1.26738281 -4.28851563 1.35117187 -5.3125 1.4375 C-6.29863281 1.51871094 -7.28476562 1.59992187 -8.30078125 1.68359375 C-11.09375599 1.91812559 -11.09375599 1.91812559 -14 3 C-14.67801034 5.90073181 -14.67801034 5.90073181 -15 9 C-14.34 9.66 -13.68 10.32 -13 11 C-13.66 11 -14.32 11 -15 11 C-12.93243723 13.7972908 -11.85559629 14.02692273 -8.3125 14.6875 C-7.219375 14.790625 -6.12625 14.89375 -5 15 C-5 15.33 -5 15.66 -5 16 C-13.98554466 16.4568921 -13.98554466 16.4568921 -18 13 C-20.74372287 9.14395705 -21.86076743 6.92821711 -22.5625 2.25 C-22 -1 -22 -1 -19.9375 -3 C-13.33366499 -5.24811405 -6.38891599 -2.04393892 0 0 Z " fill="#312627" transform="translate(63,50)"/>
<path d="M0 0 C5.50366792 -0.32374517 9.43672206 -0.53286034 14 3 C13.67 3.66 13.34 4.32 13 5 C12.67 4.67 12.34 4.34 12 4 C7.33072813 3.48119201 3.31740884 3.03604231 -0.5625 5.875 C-2.01759039 7.92623384 -2.01759039 7.92623384 -3 10 C-1.948125 9.649375 -0.89625 9.29875 0.1875 8.9375 C4.54764535 7.86533311 7.03346676 8.01673338 11 10 C11 10.66 11 11.32 11 12 C11.66 12 12.32 12 13 12 C15.125 13.875 15.125 13.875 17 16 C17 16.66 17 17.32 17 18 C14.38433064 17.05545273 12.29112106 16.24557569 10.15234375 14.44140625 C7.5021004 12.66656089 5.96930583 12.65674133 2.8125 12.75 C1.93207031 12.76546875 1.05164062 12.7809375 0.14453125 12.796875 C-1.98078543 12.76835909 -1.98078543 12.76835909 -3 14 C-4.99958364 14.04080783 -7.00045254 14.04254356 -9 14 C-8.875 11.8125 -8.875 11.8125 -8 9 C-6.03814584 7.28859531 -4.03697617 5.62126675 -2 4 C-0.81018608 1.92918481 -0.81018608 1.92918481 0 0 Z " fill="#F0E5D7" transform="translate(50,30)"/>
<path d="M0 0 C0.66 0.33 1.32 0.66 2 1 C1.67 1.33 1.34 1.66 1 2 C0.3147976 8.85202395 2.24463389 12.52584273 6.4375 17.8125 C8.47510732 19.36108156 10.59672833 20.15560725 13 21 C12.67 22.65 12.34 24.3 12 26 C5.19925959 27.90420731 -0.91923749 29.40850553 -8 29 C-8 28.67 -8 28.34 -8 28 C-7.16855469 27.80664062 -6.33710937 27.61328125 -5.48046875 27.4140625 C-3.85044922 27.02347656 -3.85044922 27.02347656 -2.1875 26.625 C-1.10855469 26.36976562 -0.02960937 26.11453125 1.08203125 25.8515625 C4.15533343 25.11267119 4.15533343 25.11267119 7 23 C7 22.34 7 21.68 7 21 C6.21625 20.71125 5.4325 20.4225 4.625 20.125 C0.52771714 18.36902163 -0.73017098 15.99935255 -2.390625 11.94140625 C-3.36286735 8.84394185 -3.36956021 6.20285515 -3 3 C-1.5 1.0625 -1.5 1.0625 0 0 Z " fill="#8D776D" transform="translate(41,47)"/>
<path d="M0 0 C1.32 0 2.64 0 4 0 C4 3.63 4 7.26 4 11 C3.01 11 2.02 11 1 11 C1.33 12.32 1.66 13.64 2 15 C3.134375 15.12375 4.26875 15.2475 5.4375 15.375 C6.613125 15.58125 7.78875 15.7875 9 16 C9.33 16.66 9.66 17.32 10 18 C8.07942708 18.22786458 6.15885417 18.45572917 4.23828125 18.68359375 C1.81008489 19.02684664 -0.59528506 19.51905701 -3 20 C-3 15.71 -3 11.42 -3 7 C-2.01 6.67 -1.02 6.34 0 6 C0 4.02 0 2.04 0 0 Z " fill="#987C6F" transform="translate(3,15)"/>
<path d="M0 0 C1.4370809 -0.05422947 2.87475462 -0.09289723 4.3125 -0.125 C5.11300781 -0.14820313 5.91351563 -0.17140625 6.73828125 -0.1953125 C9 0 9 0 12 2 C13.48683174 2.38786915 14.98950019 2.71804003 16.5 3 C19.75259668 3.60715138 21.14696759 4.0979784 24 6 C24.3984375 8.09375 24.3984375 8.09375 24.375 10.5 C24.38273437 11.2940625 24.39046875 12.088125 24.3984375 12.90625 C24.26695313 13.5971875 24.13546875 14.288125 24 15 C23.01 15.66 22.02 16.32 21 17 C20.731875 17.66 20.46375 18.32 20.1875 19 C19 21 19 21 16.4375 22.3125 C12.17884714 23.16423057 8.22058549 23.10179495 4 22 C3.67 21.34 3.34 20.68 3 20 C7.62 20 12.24 20 17 20 C16.34 19.01 15.68 18.02 15 17 C15 16.01 15 15.02 15 14 C16.98 13.67 18.96 13.34 21 13 C21.33 10.69 21.66 8.38 22 6 C20.5459375 5.8453125 20.5459375 5.8453125 19.0625 5.6875 C16.03741764 5.27193313 13.3673075 4.48015727 10.5 3.4375 C6.45530811 2.00832928 3.26594006 1.72770595 -1 2 C-0.67 1.34 -0.34 0.68 0 0 Z " fill="#584540" transform="translate(45,45)"/>
<path d="M0 0 C0 1.32 0 2.64 0 4 C-7.03363954 5.97435496 -13.12222508 7.33467875 -20 4 C-19.67 3.01 -19.34 2.02 -19 1 C-12.26718787 -0.700773 -6.86747109 -1.10765663 0 0 Z " fill="#4E222E" transform="translate(62,75)"/>
<path d="M0 0 C0.66 0.33 1.32 0.66 2 1 C1.67 1.99 1.34 2.98 1 4 C2.423125 3.505 2.423125 3.505 3.875 3 C9.8345184 1.38121734 15.2668216 0.50476871 20.86328125 3.56640625 C23.3285964 5.29247555 25.68942059 7.07287845 28 9 C25.11733394 10.44133303 23.49238868 9.49327345 20.4375 8.625 C19.44621094 8.34914063 18.45492187 8.07328125 17.43359375 7.7890625 C15 7 15 7 14 6 C8.04341538 5.56365734 2.55723413 5.59687173 -3 8 C-2.45276317 4.62537285 -1.9451 2.91765 0 0 Z " fill="#D2C0B0" transform="translate(40,40)"/>
<path d="M0 0 C1.32 0.33 2.64 0.66 4 1 C4 1.99 4 2.98 4 4 C4.66 4 5.32 4 6 4 C6 3.34 6 2.68 6 2 C7.32 2 8.64 2 10 2 C10 2.66 10 3.32 10 4 C10.9075 3.87625 11.815 3.7525 12.75 3.625 C13.8225 3.74875 14.895 3.8725 16 4 C18.125 6.9375 18.125 6.9375 20 10 C22.12119128 10.95231597 22.12119128 10.95231597 24 11 C24 11.99 24 12.98 24 14 C22.02 14 20.04 14 18 14 C18 12.68 18 11.36 18 10 C16.02 10 14.04 10 12 10 C12 9.01 12 8.02 12 7 C10.6078125 7.3403125 10.6078125 7.3403125 9.1875 7.6875 C6 8 6 8 4.125 6.75 C3 5 3 5 3 2 C2.01 2 1.02 2 0 2 C0 1.34 0 0.68 0 0 Z " fill="#876958" transform="translate(6,82)"/>
<path d="M0 0 C1.46373047 0.01353516 1.46373047 0.01353516 2.95703125 0.02734375 C4.06111328 0.04474609 4.06111328 0.04474609 5.1875 0.0625 C5.1875 1.7125 5.1875 3.3625 5.1875 5.0625 C5.8475 5.0625 6.5075 5.0625 7.1875 5.0625 C10.1875 11.6875 10.1875 11.6875 10.1875 15.0625 C6.30316265 11.55406627 6.30316265 11.55406627 5.6875 8.9375 C5.3712945 6.92773752 5.3712945 6.92773752 3.5625 5.96484375 C0.51218771 4.80592576 -2.05374139 4.76121133 -5.3125 4.75 C-6.4365625 4.73324219 -7.560625 4.71648438 -8.71875 4.69921875 C-12.04768797 5.09011677 -13.39164476 5.81371535 -15.8125 8.0625 C-15.8125 7.0725 -15.8125 6.0825 -15.8125 5.0625 C-10.91916486 0.30897443 -6.59811334 -0.07949534 0 0 Z " fill="#DAC9BB" transform="translate(57.8125,25.9375)"/>
<path d="M0 0 C0.17942163 3.94727588 0.09350689 6.5980513 -2 10 C-1.01 10.33 -0.02 10.66 1 11 C1 11.99 1 12.98 1 14 C-1.97 14 -4.94 14 -8 14 C-7.93983797 12.2282281 -7.85100672 10.45741321 -7.75 8.6875 C-7.70359375 7.70136719 -7.6571875 6.71523437 -7.609375 5.69921875 C-7 3 -7 3 -5.140625 1.14453125 C-3 0 -3 0 0 0 Z " fill="#E3D5BD" transform="translate(70,82)"/>
<path d="M0 0 C2.45103548 0.98041419 3.76758786 1.6513818 5.25 3.875 C6 6 6 6 6 10 C4.68 10 3.36 10 2 10 C2 9.01 2 8.02 2 7 C-1.3 7.66 -4.6 8.32 -8 9 C-7.67 6.69 -7.34 4.38 -7 2 C-6.34 2 -5.68 2 -5 2 C-5 2.66 -5 3.32 -5 4 C-3.35 4 -1.7 4 0 4 C0 2.68 0 1.36 0 0 Z " fill="#2E3727" transform="translate(78,20)"/>
<path d="M0 0 C3.37771844 2.07859596 4.2390537 4.31382847 5.25 8 C5.89379161 10.84156298 6 13.00669915 6 16 C3.60347472 16.08139142 1.20974564 16.14067009 -1.1875 16.1875 C-1.86103516 16.21263672 -2.53457031 16.23777344 -3.22851562 16.26367188 C-7.6647116 16.32859182 -10.56919854 15.89494295 -14 13 C-14.78831202 8.11246547 -14.75038512 6.16188664 -12.0625 2 C-7.96046421 -0.67888052 -4.77233246 -0.93837998 0 0 Z M-10.375 2.5625 C-12.4523486 5.6785229 -12.71574109 8.30463414 -13 12 C-8.84745098 15.32203921 -5.2984552 15.32368121 -0.20703125 15.30078125 C2.20458139 15.19884937 2.20458139 15.19884937 4 13 C3.86184013 8.71704388 3.70990236 6.09215748 1.375 2.5 C-2.6913617 -0.06822845 -6.35147594 -0.0845553 -10.375 2.5625 Z " fill="#8A6F61" transform="translate(81,17)"/>
<path d="M0 0 C2.59487555 1.29743778 3.02269781 2.29362471 4 5 C3.71494971 6.67559996 3.38638934 8.34482866 3 10 C-0.10632548 9.75101118 -3.20924688 9.47205823 -6.3125 9.1875 C-7.63411133 9.08211914 -7.63411133 9.08211914 -8.98242188 8.97460938 C-10.25375977 8.85375977 -10.25375977 8.85375977 -11.55078125 8.73046875 C-12.33106689 8.66239014 -13.11135254 8.59431152 -13.9152832 8.52416992 C-16.39678671 7.9002341 -17.37554081 6.93344723 -19 5 C-18.67 4.34 -18.34 3.68 -18 3 C-17.24976562 3.47566406 -17.24976562 3.47566406 -16.484375 3.9609375 C-13.12758852 5.3648765 -9.83713706 5.46225654 -6.25 5.625 C-5.55261719 5.66367187 -4.85523437 5.70234375 -4.13671875 5.7421875 C-2.42489182 5.83598624 -0.71248318 5.91906174 1 6 C0.67 4.02 0.34 2.04 0 0 Z " fill="#B69784" transform="translate(86,27)"/>
<path d="M0 0 C0.66 0 1.32 0 2 0 C2.0272616 2.04159095 2.04651345 4.08328963 2.0625 6.125 C2.07410156 7.26195312 2.08570312 8.39890625 2.09765625 9.5703125 C2.005327 12.8129156 1.61389906 15.81932612 1 19 C1.66 19 2.32 19 3 19 C3 20.98 3 22.96 3 25 C4.32 24.67 5.64 24.34 7 24 C7 24.66 7 25.32 7 26 C4.6739143 26.38063221 2.33944736 26.71269945 0 27 C-2.29293426 24.70706574 -1.92966441 20.07969421 -2 17 C-1.36149212 14.65880445 -0.69356423 12.32548007 0 10 C0.17196257 6.65901284 0.12104611 3.34221762 0 0 Z " fill="#DBC8B2" transform="translate(68,50)"/>
<path d="M0 0 C2.25 0.4375 2.25 0.4375 5 2 C6.21439307 4.28441773 7.12837754 6.57184053 8.0078125 9.00390625 C8.33523437 9.66261719 8.66265625 10.32132813 9 11 C9.99 11.33 10.98 11.66 12 12 C11.43301385 15.28851967 10.58815993 16.88544188 8 19 C6.09887695 19.43237305 6.09887695 19.43237305 3.98828125 19.51171875 C2.85229492 19.56489258 2.85229492 19.56489258 1.69335938 19.61914062 C0.90767578 19.64169922 0.12199219 19.66425781 -0.6875 19.6875 C-1.88342773 19.73874023 -1.88342773 19.73874023 -3.10351562 19.79101562 C-5.06851904 19.87338104 -7.03423696 19.93837067 -9 20 C-9 19.67 -9 19.34 -9 19 C-3.39 18.01 2.22 17.02 8 16 C6.51743392 10.0697357 3.93398912 4.72078694 0 0 Z " fill="#94786A" transform="translate(23,14)"/>
<path d="M0 0 C0.66 0 1.32 0 2 0 C2 3.63 2 7.26 2 11 C0.35 10.67 -1.3 10.34 -3 10 C-3.6496875 11.1446875 -3.6496875 11.1446875 -4.3125 12.3125 C-5.74930797 14.60074974 -7.07287662 16.1592463 -9 18 C-7.51672017 11.68098672 -6.55614777 7.80157479 -1 4 C-0.13034494 1.87053397 -0.13034494 1.87053397 0 0 Z " fill="#9F765F" transform="translate(94,58)"/>
<path d="M0 0 C0.66 0 1.32 0 2 0 C2 0.99 2 1.98 2 3 C3.32 3.33 4.64 3.66 6 4 C4.02 4.66 2.04 5.32 0 6 C0 6.66 0 7.32 0 8 C-1.98 8 -3.96 8 -6 8 C-6.33 9.32 -6.66 10.64 -7 12 C-7.66 10.02 -8.32 8.04 -9 6 C-4.375 3 -4.375 3 -1 3 C-0.67 2.01 -0.34 1.02 0 0 Z " fill="#866754" transform="translate(78,84)"/>
<path d="M0 0 C0.33 0.66 0.66 1.32 1 2 C-0.3125 4.625 -0.3125 4.625 -2 7 C-2.66 7 -3.32 7 -4 7 C-4 8.32 -4 9.64 -4 11 C-3.360625 11.45375 -2.72125 11.9075 -2.0625 12.375 C0 14 0 14 0.75 17.1875 C0.87375 18.5796875 0.87375 18.5796875 1 20 C-0.28788008 20.53012738 -1.58046678 21.0488329 -2.875 21.5625 C-3.95394531 21.99755859 -3.95394531 21.99755859 -5.0546875 22.44140625 C-7 23 -7 23 -9 22 C-7.8125 20.4375 -7.8125 20.4375 -6 19 C-3.3125 19.3125 -3.3125 19.3125 -1 20 C-1.62810173 17.02982306 -1.62810173 17.02982306 -3 14 C-5.50995496 12.56076801 -5.50995496 12.56076801 -8 12 C-8 10.68 -8 9.36 -8 8 C-7.34 8 -6.68 8 -6 8 C-6 7.34 -6 6.68 -6 6 C-5.38125 5.7525 -4.7625 5.505 -4.125 5.25 C-1.64931313 3.79371361 -1.04874998 2.62187494 0 0 Z " fill="#A3857B" transform="translate(66,61)"/>
<path d="M0 0 C0.99 0 1.98 0 3 0 C3 1.65 3 3.3 3 5 C3.66 5 4.32 5 5 5 C5 5.99 5 6.98 5 8 C2.03 7.505 2.03 7.505 -1 7 C-1.33 7.99 -1.66 8.98 -2 10 C-3.32 10 -4.64 10 -6 10 C-6 8.35 -6 6.7 -6 5 C-5.01 4.67 -4.02 4.34 -3 4 C-2.505 3.319375 -2.01 2.63875 -1.5 1.9375 C-1.005 1.298125 -0.51 0.65875 0 0 Z " fill="#273222" transform="translate(15,18)"/>
<path d="M0 0 C4.17062123 1.3103641 5.80440439 2.62003251 8 6.375 C10.27861044 10.05265364 12.48673589 12.41671757 16 15 C16 15.66 16 16.32 16 17 C12.0945257 16.42141121 9.80399897 14.73020952 7 12 C6.32136945 10.0040278 5.65358081 8.00431449 5 6 C2.98330173 4.86649466 2.98330173 4.86649466 1 4 C0.25 1.875 0.25 1.875 0 0 Z " fill="#7E6D64" transform="translate(29,79)"/>
<path d="M0 0 C5.875 1.875 5.875 1.875 7 3 C7.04063832 4.66617115 7.042721 6.33388095 7 8 C6.278125 7.938125 5.55625 7.87625 4.8125 7.8125 C1.93575611 7.77490285 1.93575611 7.77490285 -0.3125 9.5 C-4.15473355 11.64450245 -6.61633963 11.34790955 -11 11 C-13.5 10 -13.5 10 -15 9 C-11.9340292 7.4670146 -8.88361398 8.03419351 -5.5078125 8.16015625 C-2.80899769 7.98780203 -1.35460966 7.25612022 1 6 C1.99 6 2.98 6 4 6 C4 4.68 4 3.36 4 2 C2.68 1.67 1.36 1.34 0 1 C0 0.67 0 0.34 0 0 Z " fill="#804352" transform="translate(58,73)"/>
<path d="M0 0 C0.99 0 1.98 0 3 0 C3 5.94 3 11.88 3 18 C1.68 18 0.36 18 -1 18 C-0.88570603 16.22844346 -0.75816963 14.45773771 -0.625 12.6875 C-0.55539063 11.70136719 -0.48578125 10.71523438 -0.4140625 9.69921875 C0 7 0 7 2 4 C1.34 4 0.68 4 0 4 C0 2.68 0 1.36 0 0 Z " fill="#EBCEB1" transform="translate(93,27)"/>
<path d="M0 0 C0.66 0 1.32 0 2 0 C2 0.99 2 1.98 2 3 C3.32 3 4.64 3 6 3 C6 4.32 6 5.64 6 7 C4.35 7 2.7 7 1 7 C1 6.01 1 5.02 1 4 C0.649375 4.433125 0.29875 4.86625 -0.0625 5.3125 C-2.73268924 7.63814869 -5.75046509 8.64110358 -9 10 C-9.66 10.66 -10.32 11.32 -11 12 C-10.6875 10.0625 -10.6875 10.0625 -10 8 C-9.01 7.67 -8.02 7.34 -7 7 C-6.67 6.34 -6.34 5.68 -6 5 C-4.33333333 4 -2.66666667 3 -1 2 C-0.67 1.34 -0.34 0.68 0 0 Z " fill="#BDA595" transform="translate(79,80)"/>
<path d="M0 0 C12.633303 8.09827116 12.633303 8.09827116 16 15 C16.1875 17.8125 16.1875 17.8125 16 20 C14.02 20.99 14.02 20.99 12 22 C12.309375 21.01 12.61875 20.02 12.9375 19 C13.32987711 16.30785704 13.16950284 15.27389178 11.71875 12.9296875 C8.90756632 9.68696246 5.88905844 6.83081309 2.5625 4.125 C1.716875 3.42375 0.87125 2.7225 0 2 C0 1.34 0 0.68 0 0 Z " fill="#ECD9C1" transform="translate(69,41)"/>
<path d="M0 0 C0.79148437 -0.01417969 1.58296875 -0.02835938 2.3984375 -0.04296875 C4.625 0.1875 4.625 0.1875 7.625 2.1875 C9.11183174 2.57536915 10.61450019 2.90554003 12.125 3.1875 C15.37759668 3.79465138 16.77196759 4.2854784 19.625 6.1875 C19.91796875 8.3515625 19.91796875 8.3515625 19.8125 10.8125 C19.78542969 11.62976562 19.75835937 12.44703125 19.73046875 13.2890625 C19.69566406 13.91554688 19.66085938 14.54203125 19.625 15.1875 C18.635 15.6825 18.635 15.6825 17.625 16.1875 C17.625 13.2175 17.625 10.2475 17.625 7.1875 C15.43926438 6.53572031 13.2513177 5.89135326 11.0625 5.25 C9.84433594 4.89035156 8.62617187 4.53070313 7.37109375 4.16015625 C3.78850178 3.2299525 0.28712745 2.68996743 -3.375 2.1875 C-4.035 1.8575 -4.695 1.5275 -5.375 1.1875 C-3.79539731 -0.39210269 -2.17963184 0.01763456 0 0 Z " fill="#7D6F69" transform="translate(49.375,44.8125)"/>
<path d="M0 0 C0.99 0.33 1.98 0.66 3 1 C2.67 3.64 2.34 6.28 2 9 C1.67 8.01 1.34 7.02 1 6 C-1.31 6 -3.62 6 -6 6 C-6 6.99 -6 7.98 -6 9 C-8.97 8.505 -8.97 8.505 -12 8 C-10.68 7.67 -9.36 7.34 -8 7 C-7.67 5.68 -7.34 4.36 -7 3 C-5.02 3.66 -3.04 4.32 -1 5 C-0.67 3.35 -0.34 1.7 0 0 Z " fill="#405035" transform="translate(21,21)"/>
<path d="M0 0 C0 1.98 0 3.96 0 6 C-0.33 6 -0.66 6 -1 6 C-1 4.35 -1 2.7 -1 1 C-2.6212029 1.24145575 -4.2423546 1.48325911 -5.86328125 1.7265625 C-7.33452705 1.91483893 -8.81282315 2.05261888 -10.29296875 2.1484375 C-15.40468754 2.50805591 -18.22353162 3.22353162 -22 7 C-22.66 6.67 -23.32 6.34 -24 6 C-16.67480846 -1.96043851 -9.94379597 -1.55904048 0 0 Z " fill="#CCB7A9" transform="translate(64,25)"/>
<path d="M0 0 C0 1.32 0 2.64 0 4 C-3.68379022 5.17881287 -7.15541573 5.21358801 -11 5 C-11.66 4.34 -12.32 3.68 -13 3 C-12.67 2.34 -12.34 1.68 -12 1 C-7.88769156 0.32585108 -4.16980357 0 0 0 Z " fill="#3C1923" transform="translate(57,74)"/>
<path d="M0 0 C3.84800954 0.54971565 5.35309439 2.27037858 8 5 C10.13309192 6.23512079 10.13309192 6.23512079 12 7 C10.68 7.33 9.36 7.66 8 8 C9.32 9.65 10.64 11.3 12 13 C8.62801098 11.53424802 6.35012996 9.64818479 3.75 7.0625 C3.04359375 6.37285156 2.3371875 5.68320313 1.609375 4.97265625 C0 3 0 3 0 0 Z " fill="#5D4E48" transform="translate(17,66)"/>
<path d="M0 0 C3.36704285 -0.2295711 5.41370268 -0.33943529 8.375 1.375 C8.91125 1.91125 9.4475 2.4475 10 3 C10 3.66 10 4.32 10 5 C10.66 5 11.32 5 12 5 C12 5.66 12 6.32 12 7 C12.99 7 13.98 7 15 7 C15.33 8.65 15.66 10.3 16 12 C15.34 12 14.68 12 14 12 C14 11.01 14 10.02 14 9 C13.236875 8.9175 12.47375 8.835 11.6875 8.75 C8.45284809 7.84730645 7.64900735 6.86406539 6 4 C6 3.34 6 2.68 6 2 C4.02 2 2.04 2 0 2 C0 1.34 0 0.68 0 0 Z " fill="#A38673" transform="translate(16,84)"/>
<path d="M0 0 C2.3828125 -0.29296875 2.3828125 -0.29296875 5.125 -0.1875 C6.03507812 -0.16042969 6.94515625 -0.13335937 7.8828125 -0.10546875 C8.58148438 -0.07066406 9.28015625 -0.03585937 10 0 C10 0.33 10 0.66 10 1 C8.39125 1.12375 8.39125 1.12375 6.75 1.25 C3.06786195 1.74260965 3.06786195 1.74260965 0.625 3.5625 C-1.68785335 7.03178003 -1.72395554 9.8593331 -2 14 C-2.66 14 -3.32 14 -4 14 C-4.33 10.7 -4.66 7.4 -5 4 C-4.01 3.67 -3.02 3.34 -2 3 C-1.34 2.01 -0.68 1.02 0 0 Z " fill="#AE8D7A" transform="translate(69,16)"/>
<path d="M0 0 C0.33 0 0.66 0 1 0 C1.06058594 0.71285156 1.12117188 1.42570312 1.18359375 2.16015625 C1.73960049 8.60000564 1.73960049 8.60000564 2.625 15 C3 18 3 18 2 21 C2.99 21.33 3.98 21.66 5 22 C3.68 22.33 2.36 22.66 1 23 C1 21.02 1 19.04 1 17 C0.34 17 -0.32 17 -1 17 C-0.67 11.39 -0.34 5.78 0 0 Z " fill="#F6E7CF" transform="translate(70,52)"/>
<path d="M0 0 C3.96 0 7.92 0 12 0 C12 1.32 12 2.64 12 4 C8.7 4 5.4 4 2 4 C2 3.01 2 2.02 2 1 C1.34 0.67 0.68 0.34 0 0 Z " fill="#362627" transform="translate(46,92)"/>
<path d="M0 0 C1.2065625 0.0309375 1.2065625 0.0309375 2.4375 0.0625 C2.4375 1.3825 2.4375 2.7025 2.4375 4.0625 C1.4475 4.0625 0.4575 4.0625 -0.5625 4.0625 C-0.5625 5.7125 -0.5625 7.3625 -0.5625 9.0625 C-1.5525 9.0625 -2.5425 9.0625 -3.5625 9.0625 C-3.66015625 2.91015625 -3.66015625 2.91015625 -3.5625 1.0625 C-2.5625 0.0625 -2.5625 0.0625 0 0 Z " fill="#C1AFA9" transform="translate(3.5625,20.9375)"/>
<path d="M0 0 C0.66 0.66 1.32 1.32 2 2 C4.58354218 2.16687448 4.58354218 2.16687448 7 2 C6.67 3.65 6.34 5.3 6 7 C5.01 7.33 4.02 7.66 3 8 C3 7.01 3 6.02 3 5 C1.68 4.67 0.36 4.34 -1 4 C-0.67 2.68 -0.34 1.36 0 0 Z " fill="#A78C7C" transform="translate(32,21)"/>
<path d="M0 0 C4.38919936 0.2203073 8.10366089 1.30041825 11.5625 4 C13 6 13 6 13 8 C10.37075618 7.05055084 8.24996648 6.20158587 6.0625 4.4375 C3.43658806 2.60731895 1.14460275 2.35734122 -2 2 C-1.34 1.34 -0.68 0.68 0 0 Z " fill="#F1E2CE" transform="translate(54,40)"/>
<path d="M0 0 C1.2065625 0.0309375 1.2065625 0.0309375 2.4375 0.0625 C2.4375 1.7125 2.4375 3.3625 2.4375 5.0625 C0.7875 5.3925 -0.8625 5.7225 -2.5625 6.0625 C-2.94468767 4.40635343 -3.27645102 2.73792976 -3.5625 1.0625 C-2.5625 0.0625 -2.5625 0.0625 0 0 Z " fill="#080506" transform="translate(50.5625,53.9375)"/>
<path d="M0 0 C0.99 0 1.98 0 3 0 C2.67 1.98 2.34 3.96 2 6 C3.65 6 5.3 6 7 6 C7 6.99 7 7.98 7 9 C5.35 9 3.7 9 2 9 C0.14223235 5.86501708 -0.20140476 3.62528568 0 0 Z " fill="#E4C9AA" transform="translate(89,16)"/>
<path d="M0 0 C0 3 0 3 -2 6 C-1.01 6 -0.02 6 1 6 C1 5.34 1 4.68 1 4 C2.32 4 3.64 4 5 4 C4.6875 5.9375 4.6875 5.9375 4 8 C3.01 8.33 2.02 8.66 1 9 C1 8.34 1 7.68 1 7 C-0.32 7 -1.64 7 -3 7 C-2.625 4.0625 -2.625 4.0625 -2 1 C-1.34 0.67 -0.68 0.34 0 0 Z " fill="#8E6F5D" transform="translate(84,76)"/>
<path d="M0 0 C3.24271506 0.5590888 4.93057424 1.4132178 7 4 C7 4.66 7 5.32 7 6 C4.625 6.125 4.625 6.125 2 6 C1.34 5.34 0.68 4.68 0 4 C0 2.68 0 1.36 0 0 Z " fill="#241B1D" transform="translate(39,86)"/>
<path d="M0 0 C0.33 0.99 0.66 1.98 1 3 C1.66 3.33 2.32 3.66 3 4 C-0.3 4 -3.6 4 -7 4 C-7 3.34 -7 2.68 -7 2 C-7.66 1.67 -8.32 1.34 -9 1 C-4.545 0.505 -4.545 0.505 0 0 Z " fill="#AC6774" transform="translate(56,84)"/>
<path d="M0 0 C1.98 0.66 3.96 1.32 6 2 C5.01 2.33 4.02 2.66 3 3 C3.061875 3.9075 3.12375 4.815 3.1875 5.75 C2.98327924 9.28982642 2.35448165 10.44931155 0 13 C-1.32 12.67 -2.64 12.34 -4 12 C-3.154375 11.505 -2.30875 11.01 -1.4375 10.5 C1.20744216 8.33649861 1.20744216 8.33649861 1.109375 5.953125 C0.83980999 3.95266887 0.42743188 1.97276253 0 0 Z " fill="#4C2C21" transform="translate(90,72)"/>
<path d="M0 0 C0.66 0.33 1.32 0.66 2 1 C1.67 1.99 1.34 2.98 1 4 C2.32 4.33 3.64 4.66 5 5 C-0.75 8 -0.75 8 -3 8 C-2.45276317 4.62537285 -1.9451 2.91765 0 0 Z " fill="#D3C6BB" transform="translate(40,40)"/>
<path d="M0 0 C0.66 0.33 1.32 0.66 2 1 C2.625 4.0625 2.625 4.0625 3 7 C-0.66987221 8.22329074 -3.33967822 7.88021006 -7.1875 7.5625 C-8.45980469 7.46066406 -9.73210937 7.35882813 -11.04296875 7.25390625 C-12.01878906 7.17011719 -12.99460937 7.08632813 -14 7 C-14 6.67 -14 6.34 -14 6 C-9.05 6 -4.1 6 1 6 C0.67 4.02 0.34 2.04 0 0 Z " fill="#AA8A77" transform="translate(86,27)"/>
<path d="M0 0 C0.99 0 1.98 0 3 0 C3.33 0.66 3.66 1.32 4 2 C6.02463255 2.65213292 6.02463255 2.65213292 8 3 C8 3.99 8 4.98 8 6 C6.02 6 4.04 6 2 6 C2 4.68 2 3.36 2 2 C1.01 1.67 0.02 1.34 -1 1 C-0.67 0.67 -0.34 0.34 0 0 Z " fill="#795A49" transform="translate(22,90)"/>
<path d="M0 0 C0.33 0 0.66 0 1 0 C1 2.31 1 4.62 1 7 C0.195625 7.2475 -0.60875 7.495 -1.4375 7.75 C-4.171081 8.72238859 -4.171081 8.72238859 -4.8125 11.125 C-4.874375 11.74375 -4.93625 12.3625 -5 13 C-7 10 -7 10 -7 7 C-5.02 6.67 -3.04 6.34 -1 6 C-0.67 4.02 -0.34 2.04 0 0 Z " fill="#3D312F" transform="translate(67,52)"/>
<path d="M0 0 C0.66 0 1.32 0 2 0 C2 0.66 2 1.32 2 2 C1.34 2 0.68 2 0 2 C-0.0825 2.763125 -0.165 3.52625 -0.25 4.3125 C-1.16320457 7.58481639 -2.23968688 8.15979125 -5 10 C-5.66 10.99 -6.32 11.98 -7 13 C-6.66951441 7.71223057 -3.51647805 3.75899378 0 0 Z " fill="#BC9A82" transform="translate(94,56)"/>
<path d="M0 0 C1.98 0 3.96 0 6 0 C6 1.32 6 2.64 6 4 C2.25 5.125 2.25 5.125 0 4 C0 2.68 0 1.36 0 0 Z " fill="#050406" transform="translate(60,53)"/>
<path d="M0 0 C1.65 0 3.3 0 5 0 C5 1.32 5 2.64 5 4 C2.36 4.33 -0.28 4.66 -3 5 C-2.01 4.67 -1.02 4.34 0 4 C0 2.68 0 1.36 0 0 Z " fill="#582E35" transform="translate(57,75)"/>
<path d="M0 0 C0.66 0 1.32 0 2 0 C2 1.32 2 2.64 2 4 C1.01 4.33 0.02 4.66 -1 5 C-1.33 5.99 -1.66 6.98 -2 8 C-2.99 8 -3.98 8 -5 8 C-5 6.68 -5 5.36 -5 4 C-4.01 3.67 -3.02 3.34 -2 3 C-1.34 2.01 -0.68 1.02 0 0 Z " fill="#211F18" transform="translate(14,19)"/>
<path d="M0 0 C2.29013653 3.4352048 2.17842973 4.985331 2 9 C0.35 9.33 -1.3 9.66 -3 10 C-2.67 8.68 -2.34 7.36 -2 6 C-2 6.66 -2 7.32 -2 8 C-1.34 8 -0.68 8 0 8 C0 5.36 0 2.72 0 0 Z " fill="#4A3A2F" transform="translate(26,20)"/>
<path d="M0 0 C3.91402949 1.26941497 5.79072873 2.51167694 8 6 C7.67 6.66 7.34 7.32 7 8 C1.21538462 4.55384615 1.21538462 4.55384615 0.125 1.75 C0.08375 1.1725 0.0425 0.595 0 0 Z " fill="#715F58" transform="translate(29,79)"/>
<path d="M0 0 C5.875 1.875 5.875 1.875 7 3 C7.04063832 4.66617115 7.042721 6.33388095 7 8 C5.68 7.34 4.36 6.68 3 6 C3.33 4.68 3.66 3.36 4 2 C2.68 1.67 1.36 1.34 0 1 C0 0.67 0 0.34 0 0 Z " fill="#825F5B" transform="translate(58,73)"/>
<path d="M0 0 C9.99562363 -0.63019694 9.99562363 -0.63019694 14.1875 2 C15.0846875 2.99 15.0846875 2.99 16 4 C10.125 3.125 10.125 3.125 9 2 C7.48530552 1.76807135 5.96245438 1.58784762 4.4375 1.4375 C3.61121094 1.35371094 2.78492188 1.26992188 1.93359375 1.18359375 C1.29550781 1.12300781 0.65742187 1.06242187 0 1 C0 0.67 0 0.34 0 0 Z " fill="#AA998E" transform="translate(45,44)"/>
<path d="M0 0 C0.66 0 1.32 0 2 0 C2 2.31 2 4.62 2 7 C0.68 7 -0.64 7 -2 7 C-1.34 4.69 -0.68 2.38 0 0 Z " fill="#F7EBD4" transform="translate(64,89)"/>
<path d="M0 0 C0.33 0.99 0.66 1.98 1 3 C3.01508358 3.73323796 3.01508358 3.73323796 5 4 C5 4.66 5 5.32 5 6 C1.7 5.67 -1.6 5.34 -5 5 C-4.67 4.34 -4.34 3.68 -4 3 C-2.68 3 -1.36 3 0 3 C0 2.01 0 1.02 0 0 Z " fill="#9F836F" transform="translate(18,4)"/>
<path d="M0 0 C0.66 1.32 1.32 2.64 2 4 C1.01 5.485 1.01 5.485 0 7 C-1.32 6.01 -2.64 5.02 -4 4 C-2.68 2.68 -1.36 1.36 0 0 Z " fill="#B9A390" transform="translate(64,67)"/>
<path d="M0 0 C0 0.66 0 1.32 0 2 C-0.66 2 -1.32 2 -2 2 C-2.33 3.32 -2.66 4.64 -3 6 C-3.99 5.67 -4.98 5.34 -6 5 C-6 3.68 -6 2.36 -6 1 C-3.92446352 0.4465236 -2.15634036 0 0 0 Z " fill="#745F57" transform="translate(60,67)"/>
<path d="M0 0 C1.2065625 0.0309375 1.2065625 0.0309375 2.4375 0.0625 C3.0975 1.3825 3.7575 2.7025 4.4375 4.0625 C1.9625 3.0725 1.9625 3.0725 -0.5625 2.0625 C-0.8925 3.0525 -1.2225 4.0425 -1.5625 5.0625 C-2.2225 3.7425 -2.8825 2.4225 -3.5625 1.0625 C-2.5625 0.0625 -2.5625 0.0625 0 0 Z " fill="#89766B" transform="translate(17.5625,63.9375)"/>
<path d="M0 0 C0.33 0.66 0.66 1.32 1 2 C0.67 2.66 0.34 3.32 0 4 C-0.66 4 -1.32 4 -2 4 C-2 5.65 -2 7.3 -2 9 C-3.5625 7.1875 -3.5625 7.1875 -5 5 C-4 2 -4 2 -1.9375 0.8125 C-1.298125 0.544375 -0.65875 0.27625 0 0 Z " fill="#9C806C" transform="translate(74,87)"/>
<path d="M0 0 C0.99 0 1.98 0 3 0 C3 1.98 3 3.96 3 6 C2.01 6.33 1.02 6.66 0 7 C-1.33332095 4.3333581 -0.67102033 2.83319697 0 0 Z " fill="#FAE7C8" transform="translate(93,45)"/>
<path d="M0 0 C1.5 1.25 1.5 1.25 3 3 C3 4.32 3 5.64 3 7 C3.66 7 4.32 7 5 7 C5.33 6.01 5.66 5.02 6 4 C6 5.32 6 6.64 6 8 C4.68 8 3.36 8 2 8 C2 7.01 2 6.02 2 5 C1.34 5 0.68 5 0 5 C0 3.35 0 1.7 0 0 Z " fill="#3D4431" transform="translate(78,22)"/>
<path d="M0 0 C2.31 0 4.62 0 7 0 C6.67 0.99 6.34 1.98 6 3 C4.02 3 2.04 3 0 3 C0 2.01 0 1.02 0 0 Z " fill="#DBC0AA" transform="translate(19,4)"/>
<path d="M0 0 C2.97 0.495 2.97 0.495 6 1 C6.33 2.65 6.66 4.3 7 6 C6.34 6 5.68 6 5 6 C5 5.01 5 4.02 5 3 C3.35 2.67 1.7 2.34 0 2 C0 1.34 0 0.68 0 0 Z " fill="#967967" transform="translate(25,90)"/>
<path d="M0 0 C1.9375 0.75 1.9375 0.75 4 2 C4.75 4.125 4.75 4.125 5 6 C3.68 5.67 2.36 5.34 1 5 C0.67 3.35 0.34 1.7 0 0 Z " fill="#9E6E76" transform="translate(41,81)"/>
<path d="M0 0 C1.76462683 3.08809695 2 4.23312136 2 8 C0.02 8 -1.96 8 -4 8 C-3.525625 7.608125 -3.05125 7.21625 -2.5625 6.8125 C-0.64820367 4.59191626 -0.38733012 2.86624291 0 0 Z " fill="#977766" transform="translate(85,25)"/>
<path d="M0 0 C2.31 0 4.62 0 7 0 C6.67 0.99 6.34 1.98 6 3 C4.35 3 2.7 3 1 3 C0.67 2.01 0.34 1.02 0 0 Z " fill="#546C4A" transform="translate(15,27)"/>
<path d="M0 0 C4.875 4.75 4.875 4.75 6 7 C3.13275314 6.42655063 2.1385485 6.1385485 0 4 C0 2.68 0 1.36 0 0 Z " fill="#A18B7C" transform="translate(41,60)"/>
<path d="M0 0 C0.66 0 1.32 0 2 0 C1.67 3.3 1.34 6.6 1 10 C0.67 10 0.34 10 0 10 C-0.19412181 8.52168779 -0.38012131 7.04230684 -0.5625 5.5625 C-0.66691406 4.73878906 -0.77132812 3.91507812 -0.87890625 3.06640625 C-0.91886719 2.38449219 -0.95882812 1.70257813 -1 1 C-0.67 0.67 -0.34 0.34 0 0 Z " fill="#8F7771" transform="translate(60,86)"/>
<path d="M0 0 C0.99 0.33 1.98 0.66 3 1 C3.33 1.99 3.66 2.98 4 4 C2.02 4.99 2.02 4.99 0 6 C0 4.02 0 2.04 0 0 Z " fill="#AB8C79" transform="translate(0,65)"/>
<path d="M0 0 C0.33 0 0.66 0 1 0 C1.125 5.75 1.125 5.75 0 8 C-0.66 8 -1.32 8 -2 8 C-1.125 1.125 -1.125 1.125 0 0 Z " fill="#FAE7C9" transform="translate(91,51)"/>
<path d="M0 0 C0 0.99 0 1.98 0 3 C-2.31 3 -4.62 3 -7 3 C-7 2.34 -7 1.68 -7 1 C-4.50935112 0.31292445 -2.62113708 0 0 0 Z " fill="#496242" transform="translate(80,27)"/>
</svg>
